<?xml version="1.0" encoding="UTF-8"?>
<svg xmlns="http://www.w3.org/2000/svg" xmlns:xlink="http://www.w3.org/1999/xlink" width="13pt" height="14pt" viewBox="0 0 13 14" version="1.1">
<g>
<path d="M 5.527344 1.828125 L 6.171875 1.222656 C 6.445312 0.964844 6.886719 0.964844 7.15625 1.222656 L 12.796875 6.535156 C 13.070312 6.792969 13.070312 7.207031 12.796875 7.460938 L 7.15625 12.777344 C 6.882812 13.035156 6.441406 13.035156 6.171875 12.777344 L 5.527344 12.171875 C 5.253906 11.910156 5.257812 11.488281 5.539062 11.234375 L 9.035156 8.09375 L 0.695312 8.09375 C 0.308594 8.09375 0 7.800781 0 7.4375 L 0 6.5625 C 0 6.199219 0.308594 5.90625 0.695312 5.90625 L 9.035156 5.90625 L 5.539062 2.765625 C 5.253906 2.511719 5.25 2.089844 5.527344 1.828125 Z M 5.527344 1.828125 "/>
</g>
</svg>
