<svg xmlns="http://www.w3.org/2000/svg" viewBox="0 0 19 17">
  <path fill="#243F4D" fill-rule="evenodd" d="M9.913 16.244c-.095 0-.191-.018-.28-.056-.353-.149-8.65-3.749-8.65-10.759C1.074 2.779 3.19.721 5.801.721c1.743 0 3.266.918 4.112 2.31.847-1.392 2.369-2.31 4.112-2.31 2.609 0 4.725 2.058 4.817 4.684 0 7.034-8.297 10.634-8.649 10.783-.09.038-.185.056-.28.056zM5.801 2.106c-1.847 0-3.343 1.47-3.408 3.346 0 5.408 6.125 8.663 7.52 9.335 1.395-.672 7.52-3.93 7.52-9.358-.065-1.853-1.563-3.323-3.408-3.323s-3.342 1.47-3.408 3.346c-.012.373-.324.669-.704.669-.38 0-.692-.296-.705-.669-.064-1.876-1.561-3.346-3.407-3.346z"/>
</svg>
