<?xml version="1.0" encoding="utf-8"?><svg viewBox="0 0 634 634" xmlns="http://www.w3.org/2000/svg" xmlns:xlink="http://www.w3.org/1999/xlink"><style>:root>svg{display:none}:root>svg:target{display:block}</style><svg viewBox="0 0 22 9" id="arrow" xmlns="http://www.w3.org/2000/svg"><defs><style>.aacls-1{fill:#436372;fill-rule:evenodd}</style></defs><path class="aacls-1" d="M.3 5.47h16.948l-.1 2.86a.279.279 0 00-.084.2.3.3 0 00.084.21l.172.17a.276.276 0 00.408 0L21.92 4.7a.283.283 0 00.084-.2.307.307 0 00-.084-.21L17.728.08a.3.3 0 00-.408 0l-.172.17a.3.3 0 00-.084.21.3.3 0 00.084.2l.113 2.86H.292a.3.3 0 00-.292.3v1.37a.288.288 0 00.3.28z"/></svg><svg viewBox="0 0 6.1 10.97" id="arrow_all" xmlns="http://www.w3.org/2000/svg"><defs><style>.abcls-1{fill:#262626;fill-rule:evenodd}</style></defs><path class="abcls-1" d="M.55 10.97a.53.53 0 01-.41-.19.6.6 0 01-.15-.4.631.631 0 01.17-.43l4.55-4.47L.16 1A.607.607 0 01-.01.58.629.629 0 01.14.17a.559.559 0 01.8-.02l4.98 4.9.01.01a.657.657 0 01.12.17.7.7 0 01.05.25.742.742 0 01-.05.25.61.61 0 01-.12.16c0 .01-.01.01-.01.02l-4.98 4.9a.589.589 0 01-.39.16z"/></svg><svg viewBox="-42 0 512 512.001" id="author" xmlns="http://www.w3.org/2000/svg"><path d="M210.352 246.633c33.882 0 63.218-12.153 87.195-36.13 23.969-23.972 36.125-53.304 36.125-87.19 0-33.876-12.152-63.211-36.129-87.192C273.566 12.152 244.23 0 210.352 0c-33.887 0-63.22 12.152-87.192 36.125s-36.129 53.309-36.129 87.188c0 33.886 12.156 63.222 36.13 87.195 23.98 23.969 53.316 36.125 87.19 36.125zM144.379 57.34c18.394-18.395 39.973-27.336 65.973-27.336 25.996 0 47.578 8.941 65.976 27.336 18.395 18.398 27.34 39.98 27.34 65.972 0 26-8.945 47.579-27.34 65.977-18.398 18.399-39.98 27.34-65.976 27.34-25.993 0-47.57-8.945-65.973-27.34-18.399-18.394-27.344-39.976-27.344-65.976 0-25.993 8.945-47.575 27.344-65.973zm0 0M426.129 393.703c-.692-9.976-2.09-20.86-4.149-32.351-2.078-11.579-4.753-22.524-7.957-32.528-3.312-10.34-7.808-20.55-13.375-30.336-5.77-10.156-12.55-19-20.16-26.277-7.957-7.613-17.699-13.734-28.965-18.2-11.226-4.44-23.668-6.69-36.976-6.69-5.227 0-10.281 2.144-20.043 8.5a2711.03 2711.03 0 01-20.879 13.46c-6.707 4.274-15.793 8.278-27.016 11.903-10.949 3.543-22.066 5.34-33.043 5.34-10.968 0-22.086-1.797-33.043-5.34-11.21-3.622-20.3-7.625-26.996-11.899-7.77-4.965-14.8-9.496-20.898-13.469-9.754-6.355-14.809-8.5-20.035-8.5-13.313 0-25.75 2.254-36.973 6.7-11.258 4.457-21.004 10.578-28.969 18.199-7.609 7.281-14.39 16.12-20.156 26.273-5.558 9.785-10.058 19.992-13.371 30.34-3.2 10.004-5.875 20.945-7.953 32.524-2.063 11.476-3.457 22.363-4.149 32.363C.343 403.492 0 413.668 0 423.949c0 26.727 8.496 48.363 25.25 64.32C41.797 504.017 63.688 512 90.316 512h246.532c26.62 0 48.511-7.984 65.062-23.73 16.758-15.946 25.254-37.59 25.254-64.325-.004-10.316-.351-20.492-1.035-30.242zm-44.906 72.828c-10.934 10.406-25.45 15.465-44.38 15.465H90.317c-18.933 0-33.449-5.059-44.379-15.46-10.722-10.208-15.933-24.141-15.933-42.587 0-9.594.316-19.066.95-28.16.616-8.922 1.878-18.723 3.75-29.137 1.847-10.285 4.198-19.937 6.995-28.675 2.684-8.38 6.344-16.676 10.883-24.668 4.332-7.618 9.316-14.153 14.816-19.418 5.145-4.926 11.63-8.957 19.27-11.98 7.066-2.798 15.008-4.329 23.629-4.56 1.05.56 2.922 1.626 5.953 3.602 6.168 4.02 13.277 8.606 21.137 13.625 8.86 5.649 20.273 10.75 33.91 15.152 13.941 4.508 28.16 6.797 42.273 6.797 14.114 0 28.336-2.289 42.27-6.793 13.648-4.41 25.058-9.507 33.93-15.164 8.043-5.14 14.953-9.593 21.12-13.617 3.032-1.973 4.903-3.043 5.954-3.601 8.625.23 16.566 1.761 23.636 4.558 7.637 3.024 14.122 7.059 19.266 11.98 5.5 5.262 10.484 11.798 14.816 19.423 4.543 7.988 8.208 16.289 10.887 24.66 2.801 8.75 5.156 18.398 7 28.675 1.867 10.434 3.133 20.239 3.75 29.145v.008c.637 9.058.957 18.527.961 28.148-.004 18.45-5.215 32.38-15.937 42.582zm0 0"/></svg><svg viewBox="0 0 41.79 40.406" id="awards" xmlns="http://www.w3.org/2000/svg"><defs><style>.adcls-1{fill:#a3bbc8;fill-rule:evenodd}</style></defs><path class="adcls-1" d="M12.56 31.95a8.516 8.516 0 01.83-3.671L.17 7.833a.919.919 0 01.11-1.139L6.6.276A.9.9 0 017.23.01h27.35a.882.882 0 01.63.266l6.32 6.418a.906.906 0 01.11 1.139L28.42 28.28a8.508 8.508 0 01.83 3.67 8.346 8.346 0 11-16.69 0zm1.79 0a6.556 6.556 0 106.56-6.661 6.617 6.617 0 00-6.56 6.661zm8.55-8.23a8.324 8.324 0 014.47 2.884L39.24 8.242H32.9zm-8.46 2.883a8.354 8.354 0 014.48-2.883L8.91 8.242H2.57zm6.45-3.127h.03l9.85-15.234H11.04zM3.07 6.429h35.67l-4.53-4.606H7.6zm17.25 28.919v-4.9h-.53a.907.907 0 010-1.814h1.42a.9.9 0 01.89.908v5.808a.89.89 0 11-1.78-.007z"/></svg><svg viewBox="0 0 22 18" id="bookmarks" xmlns="http://www.w3.org/2000/svg"><defs><style>.aecls-1{fill:#a3bbc8;fill-rule:evenodd}</style></defs><path id="aeForma_1" data-name="Forma 1" class="aecls-1" d="M882.99 1569.82a6.208 6.208 0 00-1.849-4.1A5.871 5.871 0 00877 1564c-2.311 0-3.948 1.78-4.827 2.74a2.156 2.156 0 01-.156.17l-.083-.09c-.8-.92-2.476-2.82-4.938-2.82a5.873 5.873 0 00-4.139 1.72 6.208 6.208 0 00-1.849 4.1 6.845 6.845 0 001.271 4.34 29.307 29.307 0 004.763 4.75c1.705 1.41 3.95 3.09 4.965 3.09 1.032 0 3.269-1.68 4.965-3.09a29.234 29.234 0 004.746-4.75 6.935 6.935 0 001.272-4.34zm-2.376 3.61a27 27 0 01-4.431 4.42c-2.406 2-3.831 2.79-4.172 2.82-.342-.03-1.77-.83-4.188-2.84a26.78 26.78 0 01-4.437-4.4 5.6 5.6 0 01-1.054-3.54 4.807 4.807 0 014.666-4.57c1.863 0 3.216 1.54 3.943 2.37a1.52 1.52 0 001.059.76 1.731 1.731 0 001.151-.81c.794-.87 2.122-2.32 3.851-2.32a4.807 4.807 0 014.666 4.57 5.528 5.528 0 01-1.054 3.54z" transform="translate(-861 -1564)"/></svg><svg viewBox="0 0 48.03 63.94" id="brand" xmlns="http://www.w3.org/2000/svg"><defs><style>.afcls-1{fill:#243f4d;fill-rule:evenodd}</style></defs><path class="afcls-1" d="M32.09 7.95a17.9 17.9 0 00-20.89 3.38 18.376 18.376 0 00-1.5 24.05 1.029 1.029 0 00.79.39.981.981 0 00.62-.22 1.011 1.011 0 00.17-1.41 16.324 16.324 0 011.33-21.38 15.907 15.907 0 0118.58-3.01 1 1 0 001.34-.44 1.018 1.018 0 00-.44-1.36zM40.06 16a.99.99 0 00-1.34-.44 1.007 1.007 0 00-.44 1.35 16.279 16.279 0 01-2.98 18.75A15.948 15.948 0 0114.12 37a.992.992 0 00-1.4.18 1.011 1.011 0 00.17 1.41 17.914 17.914 0 0023.82-1.5A18.316 18.316 0 0040.06 16zm-2.58-3.84c-.24-.28-.5-.56-.77-.83s-.54-.53-.82-.78a1.003 1.003 0 00-1.32 1.51c.25.23.49.46.73.7s.47.49.69.74a.991.991 0 00.74.34 1.05 1.05 0 00.67-.25 1.021 1.021 0 00.08-1.43zm10.04 13.86a3.439 3.439 0 000-3.58l-1.31-2.17a1.412 1.412 0 01-.19-.96l.39-2.51a3.427 3.427 0 00-1.36-3.31l-2.03-1.5a1.384 1.384 0 01-.54-.81l-.6-2.47a3.391 3.391 0 00-2.5-2.53l-2.45-.6a1.448 1.448 0 01-.81-.54l-1.48-2.06a3.365 3.365 0 00-3.28-1.37L28.88 2a1.374 1.374 0 01-.95-.19L25.77.49a3.326 3.326 0 00-3.54 0l-2.15 1.32a1.384 1.384 0 01-.95.19l-2.49-.39a3.373 3.373 0 00-3.28 1.37l-1.48 2.05a1.393 1.393 0 01-.8.55l-2.45.6a3.388 3.388 0 00-2.51 2.53l-.59 2.47a1.415 1.415 0 01-.54.81l-2.04 1.5a3.427 3.427 0 00-1.36 3.31l.39 2.51a1.406 1.406 0 01-.18.96L.48 22.44a3.484 3.484 0 000 3.58l1.32 2.17a1.406 1.406 0 01.18.96l-.39 2.51a3.427 3.427 0 001.36 3.31l2.04 1.5a1.384 1.384 0 01.54.81l.59 2.47a3.391 3.391 0 002.5 2.53l1.03.25-6.93 15.59a1.043 1.043 0 00.11 1.01.981.981 0 00.92.4l5.57-.67 3.21 4.65a1.01 1.01 0 00.82.43h.1a.994.994 0 00.81-.6l7.08-15.92.89.55a3.326 3.326 0 003.54 0l.93-.57 7.08 15.94a1.009 1.009 0 00.82.6h.09a1 1 0 00.82-.43l3.21-4.65 5.57.68a1.015 1.015 0 001.03-1.42l-6.93-15.6.99-.24a3.391 3.391 0 002.5-2.53l.6-2.47a1.384 1.384 0 01.54-.81l2.03-1.5a3.427 3.427 0 001.36-3.31l-.39-2.51a1.412 1.412 0 01.19-.96zM13.16 60.9l-2.54-3.69a.99.99 0 00-.94-.42l-4.41.53 6.31-14.2a1.421 1.421 0 01.3.3l1.48 2.06a3.958 3.958 0 00.47.53l-3.32 7.48a1.005 1.005 0 00.91 1.42 1 1 0 00.91-.6l3.31-7.45a3.725 3.725 0 001-.01l2.49-.39a1.086 1.086 0 01.44 0zm29.62-3.58l-4.42-.53a.983.983 0 00-.93.42l-2.55 3.69-6.41-14.45a1.136 1.136 0 01.41.01l2.48.39a3.3 3.3 0 001.04 0l3.31 7.46a1.012 1.012 0 00.91.6.978.978 0 00.41-.09 1.011 1.011 0 00.5-1.33l-3.33-7.51a3.5 3.5 0 00.44-.5l1.48-2.06a1.518 1.518 0 01.34-.33zm3.04-32.35l-1.32 2.17a3.435 3.435 0 00-.45 2.32l.39 2.51a1.419 1.419 0 01-.56 1.37l-2.04 1.5a3.4 3.4 0 00-1.3 1.96l-.6 2.48a1.383 1.383 0 01-1.03 1.04l-2.45.6a3.357 3.357 0 00-1.95 1.32l-1.48 2.05a1.39 1.39 0 01-1.36.57l-2.48-.4a3.42 3.42 0 00-2.3.46l-2.16 1.33a1.374 1.374 0 01-1.46 0l-2.15-1.33a3.4 3.4 0 00-1.78-.5 4.55 4.55 0 00-.52.04l-2.49.4a1.382 1.382 0 01-1.35-.57l-1.49-2.05a3.357 3.357 0 00-1.95-1.32l-2.45-.6a1.383 1.383 0 01-1.03-1.04l-.59-2.48a3.412 3.412 0 00-1.31-1.96l-2.03-1.5a1.426 1.426 0 01-.57-1.37l.4-2.51a3.5 3.5 0 00-.46-2.32l-1.31-2.17a1.409 1.409 0 010-1.48l1.31-2.17A3.5 3.5 0 003.96 19l-.39-2.52a1.391 1.391 0 01.56-1.36l2.03-1.5a3.467 3.467 0 001.31-1.97l.59-2.47a1.383 1.383 0 011.03-1.04l2.45-.6a3.412 3.412 0 001.96-1.32l1.48-2.05a1.382 1.382 0 011.35-.57l2.49.39a3.331 3.331 0 002.3-.46l2.15-1.32a1.374 1.374 0 011.46 0l2.16 1.32a3.31 3.31 0 002.3.46l2.48-.39a1.39 1.39 0 011.36.57l1.48 2.05a3.389 3.389 0 001.95 1.32l2.45.6a1.383 1.383 0 011.03 1.04l.6 2.47a3.42 3.42 0 001.3 1.97l2.04 1.5a1.411 1.411 0 01.56 1.36L44.05 19a3.435 3.435 0 00.45 2.32l1.32 2.17a1.453 1.453 0 010 1.48zm-10.13-3.88a1.788 1.788 0 00-1.51-1.24l-6.01-.72-2.53-5.55a1.8 1.8 0 00-3.28 0l-2.53 5.55-6.01.72a1.775 1.775 0 00-1.5 1.24 1.818 1.818 0 00.49 1.9l4.44 4.15-1.18 5.99a1.819 1.819 0 001.77 2.18 1.767 1.767 0 00.88-.24L24 32.09l5.28 2.98a1.757 1.757 0 001.94-.11 1.807 1.807 0 00.71-1.83l-1.18-5.99 4.44-4.15a1.8 1.8 0 00.5-1.9zm-6.7 4.95a1.006 1.006 0 00-.3.94l1.2 6.13-5.4-3.05a.947.947 0 00-.49-.13.973.973 0 00-.49.13l-5.4 3.05 1.21-6.13a1.031 1.031 0 00-.3-.94l-4.55-4.24 6.15-.74a1.01 1.01 0 00.79-.58L24 14.81l2.59 5.67a1.01 1.01 0 00.79.58l6.15.74z"/></svg><svg viewBox="0 0 36.447 36.447" id="calendar" xmlns="http://www.w3.org/2000/svg"><path d="M30.224 3.948h-1.098V2.75c0-1.517-1.197-2.75-2.67-2.75-1.474 0-2.67 1.233-2.67 2.75v1.197h-2.74V2.75c0-1.517-1.197-2.75-2.67-2.75-1.473 0-2.67 1.233-2.67 2.75v1.197h-2.74V2.75c0-1.517-1.197-2.75-2.67-2.75-1.473 0-2.67 1.233-2.67 2.75v1.197H6.224a4.255 4.255 0 00-4.25 4.25v24a4.255 4.255 0 004.25 4.25h24a4.255 4.255 0 004.25-4.25v-24a4.255 4.255 0 00-4.25-4.249zM25.286 2.75c0-.689.525-1.25 1.17-1.25.646 0 1.17.561 1.17 1.25v4.896c0 .689-.524 1.25-1.17 1.25-.645 0-1.17-.561-1.17-1.25V2.75zm-8.08 0c0-.689.525-1.25 1.17-1.25s1.17.561 1.17 1.25v4.896c0 .689-.525 1.25-1.17 1.25s-1.17-.561-1.17-1.25V2.75zm-8.081 0c0-.689.525-1.25 1.17-1.25s1.17.561 1.17 1.25v4.896c0 .689-.525 1.25-1.17 1.25s-1.17-.561-1.17-1.25V2.75zm22.849 29.448c0 .965-.785 1.75-1.75 1.75h-24c-.965 0-1.75-.785-1.75-1.75v-22h27.5v22z"/><path d="M6.724 14.626h4.595v4.089H6.724zM12.857 14.626h4.596v4.089h-4.596zM18.995 14.626h4.595v4.089h-4.595zM25.128 14.626h4.596v4.089h-4.596zM6.724 20.084h4.595v4.086H6.724zM12.857 20.084h4.596v4.086h-4.596zM18.995 20.084h4.595v4.086h-4.595zM25.128 20.084h4.596v4.086h-4.596zM6.724 25.54h4.595v4.086H6.724zM12.857 25.54h4.596v4.086h-4.596zM18.995 25.54h4.595v4.086h-4.595zM25.128 25.54h4.596v4.086h-4.596z"/></svg><svg viewBox="0 0 18.94 16.969" id="card" xmlns="http://www.w3.org/2000/svg"><defs><style>.ahcls-1{fill:#243f4d;fill-rule:evenodd}</style></defs><path class="ahcls-1" d="M5.53 16.978a2.074 2.074 0 110-4.147 2.056 2.056 0 011.46.6 2.03 2.03 0 01.61 1.466 2.071 2.071 0 01-2.07 2.081zm0-2.963a.889.889 0 10.34 1.71.9.9 0 00.55-.824.92.92 0 00-.26-.629.9.9 0 00-.63-.257zm8.39 2.963a2.045 2.045 0 01-1.46-.607 2.068 2.068 0 011.46-3.54 1.953 1.953 0 011.47.6 2.085 2.085 0 01-.67 3.383 2.093 2.093 0 01-.8.164zm0-2.963a.978.978 0 00-.82.548.887.887 0 001.16 1.161.891.891 0 00.29-1.452.9.9 0 00-.63-.257zm-11.27.164a.562.562 0 01-.25-.056.59.59 0 01-.29-.787 3.686 3.686 0 013.05-2.151L4.11 5.794a.591.591 0 111.16-.228l1.09 5.578h9.43l1.8-6.771H4.29A4.346 4.346 0 01.01.68.587.587 0 01.5.007a.6.6 0 01.68.5 3.159 3.159 0 003.11 2.682h14.07a.582.582 0 01.47.232.594.594 0 01.11.513l-2.13 7.956a.59.59 0 01-.57.44H5.88a.03.03 0 00-.02 0 2.66 2.66 0 00-2.68 1.51.586.586 0 01-.53.338z"/></svg><svg viewBox="0 0 22 20" id="card2" xmlns="http://www.w3.org/2000/svg"><defs><style>.aicls-1{fill:#fff;fill-rule:evenodd}</style></defs><path id="aiForma_1" data-name="Forma 1" class="aicls-1" d="M800.814 1564.63h2.333l3.323 12.04a.812.812 0 00.787.59h10.214a.821.821 0 00.746-.48l3.717-8.56a.836.836 0 00-.068-.78.813.813 0 00-.678-.37H809.9a.82.82 0 000 1.64h10.04l-3.011 6.92h-9.062l-3.323-12.03a.808.808 0 00-.787-.6h-2.943a.815.815 0 000 1.63zm5.67 18.37a1.85 1.85 0 10-1.845-1.85 1.85 1.85 0 001.845 1.85zm11.53 0h.135a1.907 1.907 0 10-.135 0z" transform="translate(-800 -1563)"/></svg><svg aria-hidden="true" data-prefix="fas" data-icon="check" class="ajsvg-inline--fa ajfa-check ajfa-w-16" viewBox="0 0 512 512" id="check-solid" xmlns="http://www.w3.org/2000/svg"><path fill="currentColor" d="M173.898 439.404l-166.4-166.4c-9.997-9.997-9.997-26.206 0-36.204l36.203-36.204c9.997-9.998 26.207-9.998 36.204 0L192 312.69 432.095 72.596c9.997-9.997 26.207-9.997 36.204 0l36.203 36.204c9.997 9.997 9.997 26.206 0 36.204l-294.4 294.401c-9.998 9.997-26.207 9.997-36.204-.001z"/></svg><svg viewBox="0 0 33.75 33.75" id="cyrcle" xmlns="http://www.w3.org/2000/svg"><defs><style>.akcls-1{fill:#a3bbc8}</style></defs><circle class="akcls-1" cx="16.875" cy="16.875" r="16.875"/></svg><svg viewBox="0 0 49.126 29.35" id="delivery" xmlns="http://www.w3.org/2000/svg"><defs><style>.alcls-1{fill:#a3bbc8;fill-rule:evenodd}</style></defs><path id="aldelivery-truck" class="alcls-1" d="M812.816 1025.33h-6.126a.79.79 0 000 1.58h6.126a.79.79 0 000-1.58zm.524 11.01h-5.6a.785.785 0 100 1.57h5.6a.785.785 0 100-1.57zm-2.094-4.72H804.6a.79.79 0 000 1.58h6.65a.79.79 0 00-.004-1.58zm0 11.01h-.646a.785.785 0 100 1.57h.644a.785.785 0 10.002-1.57zm-3.263 0H804.6a.785.785 0 100 1.57h3.387a.785.785 0 10-.004-1.57zm36.86-19.86h-6.657v-1.42a.784.784 0 00-.786-.78h-12.175a.785.785 0 100 1.57h11.39v17.22a.786.786 0 101.571 0v-15.02h6.657a6.519 6.519 0 016.509 6.52v13.29h-2a4.974 4.974 0 00-9.824 0h-1.345v-1.12a.786.786 0 10-1.571 0v1.12h-8.336a4.974 4.974 0 00-9.823 0h-1.634v-22.01h5.261a.785.785 0 100-1.57h-6.046a.783.783 0 00-.785.78v23.59a.791.791 0 00.785.79h2.419a4.974 4.974 0 009.823 0h11.252a4.974 4.974 0 009.824 0h2.782a.791.791 0 00.785-.79v-14.08a8.094 8.094 0 00-8.076-8.09zm-21.475 25.58a3.41 3.41 0 113.4-3.41 3.411 3.411 0 01-3.4 3.41zm21.075 0a3.411 3.411 0 01-3.4-3.41 3.4 3.4 0 113.4 3.41zm.4-22.44h-4.3a.791.791 0 00-.785.79v7.39a.791.791 0 00.785.79H849a.792.792 0 00.786-.79v-3.23a4.949 4.949 0 00-4.943-4.95zm3.367 7.39h-6.882v-5.81h3.515a3.371 3.371 0 013.367 3.37v2.44zm-24.842 9.61a2.03 2.03 0 102.024 2.03 2.029 2.029 0 00-2.024-2.03zm0 2.49a.46.46 0 01-.455-.46.455.455 0 01.909 0 .46.46 0 01-.454.46zm21.075-2.49a2.03 2.03 0 102.025 2.03 2.03 2.03 0 00-2.025-2.03zm0 2.49a.46.46 0 01-.454-.46.454.454 0 01.908 0 .46.46 0 01-.454.46zm4.552-8.37a.783.783 0 00-.785.78v1.99a.786.786 0 101.571 0v-1.99a.784.784 0 00-.781-.78z" transform="translate(-803.812 -1020.56)"/></svg><svg viewBox="0 0 64 40" id="delivery2" xmlns="http://www.w3.org/2000/svg"><defs><style>.amcls-1{fill:#243f4d;fill-rule:evenodd}</style></defs><path class="amcls-1" d="M59.52 16.96l-1.658-6.55a1 1 0 00.793-.97V8.38a4.192 4.192 0 00-4.208-4.16H46.9V2.05A2.063 2.063 0 0044.829 0H6.346a2.063 2.063 0 00-2.071 2.05V20a1 1 0 002 0V2.05a.068.068 0 01.066-.07h38.481a.068.068 0 01.066.07V20a1 1 0 002 0v-1.12h11.826a3.27 3.27 0 013.114 2.24h-3.116a1 1 0 00-1 .99v2.11a3.131 3.131 0 003.14 3.11H62v4.35h-2.621a6.372 6.372 0 00-12 0H46.9v-7.46a1 1 0 00-2 0v7.46H24.1a6.372 6.372 0 00-12 0H6.339a.066.066 0 01-.066-.06v-2.18h4.342a.99.99 0 100-1.98H1a.99.99 0 100 1.98h3.274v2.18a2.061 2.061 0 002.071 2.04h5.413v.07a6.347 6.347 0 0012.693 0v-.07h22.584v.07a6.347 6.347 0 0012.693 0v-.07H63a.994.994 0 001-.99V22.11a5.235 5.235 0 00-4.48-5.15zM46.9 6.2h7.549a2.2 2.2 0 012.2 2.18v.07H46.9V6.2zm0 10.7v-6.47h8.9l1.637 6.47H46.9zM18.1 38.02a4.29 4.29 0 114.343-4.29 4.325 4.325 0 01-4.343 4.29zm35.274 0a4.29 4.29 0 114.342-4.29 4.325 4.325 0 01-4.338 4.29zM62 25.35h-1.14a1.137 1.137 0 01-1.136-1.13V23.1H62v2.25zm-43.892 6.33a2.05 2.05 0 102.071 2.05 2.063 2.063 0 00-2.079-2.05zm35.274 0a2.05 2.05 0 102.071 2.05 2.063 2.063 0 00-2.075-2.05zm-11.758-4.22H26.655a.99.99 0 100 1.98H41.62a.99.99 0 100-1.98zm-25.653-4.23H3.14a.99.99 0 100 1.98h12.827a.99.99 0 100-1.98zM34.85 9.79a1.023 1.023 0 00-1.417 0l-8.911 8.81-4.636-4.58a1 1 0 00-1.417 0 .98.98 0 000 1.4l5.344 5.28a1.01 1.01 0 001.417 0l9.62-9.51a.98.98 0 00-.004-1.4z"/></svg><svg viewBox="0 0 21 20" id="ellipse" xmlns="http://www.w3.org/2000/svg"><path fill-rule="evenodd" opacity=".341" fill="#A3BBC8" d="M10.75.406c5.419 0 9.812 4.386 9.812 9.797 0 5.411-4.393 9.797-9.812 9.797S.937 15.614.937 10.203C.937 4.792 5.331.406 10.75.406z"/></svg><svg viewBox="0 0 22.66 14.38" id="google+" xmlns="http://www.w3.org/2000/svg"><defs><style>.aocls-1{fill:#888;fill-rule:evenodd}</style></defs><path id="aoUnion_6" data-name="Union 6" class="aocls-1" d="M1052.75 1960.35a7.121 7.121 0 01-6.59-5.65 6.6 6.6 0 01-.14-1.93 7.277 7.277 0 015.49-6.56 5.282 5.282 0 011.18-.19c.23-.01.46-.02.69-.02a6.786 6.786 0 013.4.93 9.386 9.386 0 011.27.93c-.72.71-1.41 1.4-2.11 2.09a3.914 3.914 0 00-2.1-1.02 4.259 4.259 0 00-.61-.04 4.307 4.307 0 00-4.14 3.35 3.817 3.817 0 00-.1 1.3 4.3 4.3 0 002.94 3.74 4.35 4.35 0 001.25.19c.1 0 .2-.01.3-.01a4.2 4.2 0 002.09-.67 3.314 3.314 0 001.43-2.17h-3.85c0-.09.02-1.89.02-2.76l.01-.12h6.76a7.773 7.773 0 01-1.28 6.05 6.273 6.273 0 01-3.55 2.32 7.539 7.539 0 01-1.94.25c-.14 0-.28 0-.42-.01zm13.33-4.05h-1.89v-.07l.02-2.43h-2.51v-.08l.02-1.82v-.07h2.5l.02-2.43v-.07h1.96v.07l-.02 2.43h2.51v.07l-.01 1.82v.08h-2.51l-.02 2.43v.07h-.07z" transform="translate(-1046.03 -1946)"/></svg><svg viewBox="0 0 17.19 17.19" id="insta" xmlns="http://www.w3.org/2000/svg"><defs><style>.apcls-1{fill:#888;fill-rule:evenodd}</style></defs><path id="apUnion_5" data-name="Union 5" class="apcls-1" d="M1004.59 1961.94a4.322 4.322 0 01-3.43-3.75c-.23-1.45-.25-8.19.17-9.65a4.387 4.387 0 013.75-3.35 34.173 34.173 0 014.31-.19c1.6 0 3.22.04 4.19.1a4.724 4.724 0 013.14 1.28 4.517 4.517 0 011.38 2.94c.12 1.35.21 7.74-.19 9.24a4.411 4.411 0 01-3.8 3.44 42.333 42.333 0 01-4.74.19 29.143 29.143 0 01-4.78-.25zm.92-15.26a2.958 2.958 0 00-2.75 2.59 57.587 57.587 0 00-.06 8.69 2.8 2.8 0 002.12 2.43 27.569 27.569 0 004.63.25c1.8 0 3.57-.06 4.24-.13a2.941 2.941 0 002.75-2.6 61.315 61.315 0 00.11-8.45 2.9 2.9 0 00-2.58-2.74 40.212 40.212 0 00-4.3-.16c-1.71 0-3.41.04-4.16.12zm-.32 6.92a4.445 4.445 0 014.45-4.41 4.37 4.37 0 014.37 4.41 4.458 4.458 0 01-4.45 4.41 4.37 4.37 0 01-4.37-4.41zm1.55-.03a2.834 2.834 0 002.81 2.88h.02a2.882 2.882 0 002.88-2.82 2.82 2.82 0 00-2.8-2.88h-.03a2.881 2.881 0 00-2.88 2.82zm6.45-4.55a1.029 1.029 0 011.03-1.03h.01a1.016 1.016 0 011.02 1.04 1.035 1.035 0 01-1.04 1.02 1.014 1.014 0 01-1.02-1.03z" transform="translate(-1001 -1945)"/></svg><svg viewBox="0 0 20.03 20.031" id="menu" xmlns="http://www.w3.org/2000/svg"><defs><style>.aqcls-1{fill:#fff;fill-rule:evenodd}</style></defs><path class="aqcls-1" d="M2.15 4.287a2.146 2.146 0 112.14-2.145 2.145 2.145 0 01-2.14 2.145zm0 7.869a2.146 2.146 0 112.14-2.147 2.146 2.146 0 01-2.14 2.147zm0 7.868a2.146 2.146 0 112.14-2.146 2.145 2.145 0 01-2.14 2.146zm7.86-15.737a2.146 2.146 0 112.15-2.145 2.143 2.143 0 01-2.15 2.145zm0 7.869a2.146 2.146 0 112.15-2.147 2.144 2.144 0 01-2.15 2.147zm0 7.868a2.146 2.146 0 112.15-2.146 2.143 2.143 0 01-2.15 2.146zm7.87-15.737a2.146 2.146 0 112.15-2.145 2.143 2.143 0 01-2.15 2.145zm0 7.869a2.146 2.146 0 112.15-2.147 2.144 2.144 0 01-2.15 2.147zm0 7.868a2.146 2.146 0 112.15-2.146 2.143 2.143 0 01-2.15 2.146z"/></svg><svg viewBox="0 0 64 57" id="monitor" xmlns="http://www.w3.org/2000/svg"><defs><style>.arcls-1{fill:#243f4d;fill-rule:evenodd}</style></defs><path class="arcls-1" d="M60.635 0H3.365A3.368 3.368 0 000 3.36V44.5a3.368 3.368 0 003.365 3.36h21.691l-.877 7h-3.633a1.07 1.07 0 100 2.14h22.908a1.07 1.07 0 100-2.14H39.82l-.877-7h21.692A3.368 3.368 0 0064 44.5V3.36A3.368 3.368 0 0060.635 0zM26.344 54.86l.877-7h9.558l.877 7H26.344zM61.852 44.5a1.213 1.213 0 01-1.217 1.21H3.365a1.212 1.212 0 01-1.217-1.21V3.36a1.221 1.221 0 011.217-1.22h57.27a1.222 1.222 0 011.217 1.22V44.5zM50.327 4.57H5.655a1.072 1.072 0 00-1.073 1.07v35.43a1.072 1.072 0 001.073 1.07h3.437a1.07 1.07 0 100-2.14H6.729V6.71h43.6a1.07 1.07 0 10-.002-2.14zm8.017 0h-3.436a1.07 1.07 0 100 2.14h2.363V40h-43.6a1.07 1.07 0 100 2.14h44.671a1.073 1.073 0 001.074-1.07V5.64a1.073 1.073 0 00-1.072-1.07zm-6.872 5.72a3.352 3.352 0 00-2.97 4.93l-8.6 9.09a3.322 3.322 0 00-1.408-.31 3.361 3.361 0 00-2.314.92l-7.348-3.88a3.364 3.364 0 10-6.684-.54 3.352 3.352 0 00.328 1.45l-8.406 8.14a3.331 3.331 0 00-1.539-.38 3.36 3.36 0 103.036 1.91l8.406-8.14a3.328 3.328 0 003.852-.55l7.348 3.88a3.54 3.54 0 00-.044.55 3.365 3.365 0 106.334-1.58l8.6-9.09a3.316 3.316 0 001.408.31 3.355 3.355 0 10.001-6.71zm-38.944 24a1.215 1.215 0 111.217-1.22 1.222 1.222 0 01-1.217 1.22zm12.981-12.58a1.21 1.21 0 111.217-1.21 1.213 1.213 0 01-1.217 1.21zm12.982 6.86a1.215 1.215 0 111.217-1.21 1.212 1.212 0 01-1.217 1.21zm12.981-13.71a1.215 1.215 0 111.217-1.22 1.222 1.222 0 01-1.217 1.22zm0 4.57a1.073 1.073 0 00-1.074 1.07v16a1.074 1.074 0 002.148 0v-16a1.073 1.073 0 00-1.074-1.07zm-25.963 6.86a1.066 1.066 0 00-1.074 1.07v9.14a1.074 1.074 0 002.148 0v-9.14a1.066 1.066 0 00-1.074-1.07zm12.982 6.85a1.073 1.073 0 00-1.074 1.07v2.29a1.074 1.074 0 002.147 0v-2.29a1.072 1.072 0 00-1.073-1.07z"/></svg><svg viewBox="0 0 49.13 43.84" id="pay" xmlns="http://www.w3.org/2000/svg"><defs><style>.ascls-1{fill:#a3bbc8;fill-rule:evenodd}</style></defs><path id="ascredit-card" class="ascls-1" d="M1444.43 1042.32a.83.83 0 00-.84.83v8.27a2.164 2.164 0 01-2.16 2.16h-39.34a2.164 2.164 0 01-2.16-2.16v-11.92h27.29a.84.84 0 100-1.68h-27.29v-5.47h9.87a.828.828 0 00.83-.83.837.837 0 00-.83-.84h-9.87v-2.88a2.166 2.166 0 012.16-2.17h25.13a.835.835 0 100-1.67h-25.13a3.839 3.839 0 00-3.83 3.84v23.62a3.837 3.837 0 003.83 3.83h39.34a3.837 3.837 0 003.83-3.83v-8.27a.828.828 0 00-.83-.83zm-17.21-11.64H1413a.837.837 0 00-.83.84.828.828 0 00.83.83h14.22a.837.837 0 00.84-.83.845.845 0 00-.84-.84zm-9.24 11.56h-14.27a.835.835 0 000 1.67h14.27a.835.835 0 100-1.67zm-6.08 3.99h-8.19a.835.835 0 000 1.67h8.19a.835.835 0 000-1.67zm34.63-13.61a.832.832 0 00.84-.84v-4.77a3.038 3.038 0 00-2.39-2.97v-6.02a6.6 6.6 0 10-13.19 0v6.02a3.053 3.053 0 00-2.4 2.97v10.75a3.045 3.045 0 003.04 3.04h11.9a3.039 3.039 0 003.04-3.04v-3.19a.835.835 0 00-1.67 0v3.19a1.379 1.379 0 01-1.37 1.37h-11.9a1.379 1.379 0 01-1.37-1.37v-10.75a1.379 1.379 0 011.37-1.37h11.9a1.379 1.379 0 011.37 1.37v4.77a.83.83 0 00.83.84zm-3.23-8.65h-9.84v-5.95a4.92 4.92 0 119.84 0v5.95zm-4.92 4.32a3.092 3.092 0 00-.83 6.07v2.04a.83.83 0 00.83.84.839.839 0 00.84-.84v-2.04a3.094 3.094 0 00-.84-6.07zm0 4.52a1.425 1.425 0 111.42-1.43 1.428 1.428 0 01-1.42 1.43z" transform="translate(-1398.25 -1011.41)"/></svg><svg viewBox="0 0 22 25" id="play" xmlns="http://www.w3.org/2000/svg"><defs><style>.atcls-1{fill:#fff;fill-rule:evenodd}</style></defs><path id="atForm_24" data-name="Form 24" class="atcls-1" d="M970.684 3900.74l-16.044 9.8a3.228 3.228 0 01-3.062.14 2.685 2.685 0 01-1.579-2.39v-19.59a2.685 2.685 0 011.579-2.39 3.258 3.258 0 013.062.15l16.044 9.79a2.666 2.666 0 011.316 2.25 2.638 2.638 0 01-1.316 2.24z" transform="translate(-950 -3886)"/></svg><svg viewBox="0 0 36.41 37.719" id="project" xmlns="http://www.w3.org/2000/svg"><defs><style>.aucls-1{fill:#a3bbc8;fill-rule:evenodd}</style></defs><path class="aucls-1" d="M1.975 37.71A1.984 1.984 0 010 35.719V8.441a.915.915 0 01.264-.643L7.74.256a.9.9 0 01.638-.267h19.09a1.98 1.98 0 011.97 1.991v2.87a.9.9 0 11-1.8 0V1.98a.172.172 0 00-.17-.17H9.278v5.552a1.98 1.98 0 01-1.97 1.99h-5.5v26.367a.17.17 0 00.168.17h25.5a.173.173 0 00.17-.17v-13.9a.9.9 0 111.8 0v13.9a1.98 1.98 0 01-1.97 1.991h-25.5zM3.083 7.532H7.31a.17.17 0 00.168-.17V3.097zM7.059 31.24a.91.91 0 010-1.82H11l1.39-5.066a.9.9 0 01.23-.4l.02-.015H7.059a.91.91 0 010-1.82h7.381l5.43-5.48H7.059a.911.911 0 010-1.821H21.68l8.43-8.5a3.038 3.038 0 014.32 0l1.06 1.071a3.1 3.1 0 010 4.356L18 29.382a.889.889 0 01-.39.234l-5.7 1.6c-.03.007-.23.029-.23.029H7.059zm5.921-2.218l2.65-.744-1.91-1.933zm1.56-4.424l2.83 2.853L31.8 12.889l-2.83-2.852zm16.84-17L30.25 8.75l2.83 2.853 1.13-1.147a1.264 1.264 0 000-1.782l-1.06-1.071a1.225 1.225 0 00-.88-.369 1.265 1.265 0 00-.89.368z"/></svg><svg viewBox="0 0 43.13 39.094" id="revenue" xmlns="http://www.w3.org/2000/svg"><defs><style>.avcls-1{fill:#a3bbc8;fill-rule:evenodd}</style></defs><path class="avcls-1" d="M37.87 9.304V2.178A2.174 2.174 0 0036.82.291 2.076 2.076 0 0034.69.27a48.669 48.669 0 01-20.7 6.383l-6.68.034a3.286 3.286 0 00-3.23 2.949H2.72A2.749 2.749 0 00.01 12.41v6.1a2.748 2.748 0 002.71 2.774h1.36a3.32 3.32 0 001.91 2.664l4.85 13.723a2.118 2.118 0 001.98 1.428h4.86a2.1 2.1 0 001.73-.925 2.221 2.221 0 00.25-1.986l-4.15-11.785a48.668 48.668 0 0119.18 6.244 2.08 2.08 0 002.13-.021 2.174 2.174 0 001.05-1.887v-7.126a6.228 6.228 0 000-12.309zM4.05 19.14H2.72a.622.622 0 01-.62-.634v-6.1a.623.623 0 01.62-.634h1.33v7.364zm2.78 2.844a1.2 1.2 0 01-.69-1.1V10.03a1.185 1.185 0 011.17-1.2h5.67v13.262H7.23a1.027 1.027 0 01-.4-.108zm10.88 14.93a.037.037 0 01-.01.028c-.01.013-.01.013-.02.013h-4.86a.049.049 0 01-.03-.018L8.31 24.229h4.92zm18.08-8.179a.037.037 0 01-.03.041.04.04 0 01-.05 0 50.66 50.66 0 00-20.65-6.57v-13.5a50.692 50.692 0 0020.65-6.571.04.04 0 01.05 0 .037.037 0 01.03.041v26.557zm2.08-9.292v-7.974a4.089 4.089 0 010 7.974z"/></svg><svg viewBox="0 0 15.28 15.281" id="search" xmlns="http://www.w3.org/2000/svg"><defs><style>.awcls-1{fill:#243f4d;fill-rule:evenodd}</style></defs><path id="awicon" class="awcls-1" d="M1547.7 72.076a.617.617 0 01.75.485 2.583 2.583 0 00.78 1.489 3.036 3.036 0 001.49.777.636.636 0 01.49.743.649.649 0 01-.72.515 4.21 4.21 0 01-2.14-1.13 4.164 4.164 0 01-1.13-2.136.6.6 0 01.48-.743zm3.28-6.076a6.267 6.267 0 016.28 6.257 6.136 6.136 0 01-.57 2.6l2.34 2.036c1.7 1.746.74 3.266.29 3.717-.42.454-1.99 1.414-3.73-.292l-2.06-2.35A6.261 6.261 0 111550.98 66zm5.55 13.517a1.352 1.352 0 001.88.226 1.313 1.313 0 00-.23-1.874l-2.16-1.88a6.236 6.236 0 01-1.37 1.34zm-5.55-2.312a4.948 4.948 0 10-4.97-4.948 4.963 4.963 0 004.97 4.943z" transform="translate(-1544.72 -66)"/></svg><svg viewBox="0 0 20 20" id="search2" xmlns="http://www.w3.org/2000/svg"><defs><style>.axcls-1{fill:#a3bbc8;fill-rule:evenodd}</style></defs><path id="axForma_1" data-name="Forma 1" class="axcls-1" d="M759.45 1579.8l-4.588-4.59a8.827 8.827 0 01-2.651 2.65l4.588 4.59a1.874 1.874 0 002.651-2.65zm-4.45-9.3a7.5 7.5 0 10-7.5 7.5 7.5 7.5 0 007.5-7.5zm-7.5 5.62a5.625 5.625 0 115.625-5.62 5.628 5.628 0 01-5.625 5.62zm-4.375-5.62h1.25a3.135 3.135 0 013.125-3.13v-1.25a4.386 4.386 0 00-4.375 4.38z" transform="translate(-740 -1563)"/></svg><svg viewBox="0 0 634 634" id="slider-icon" xmlns="http://www.w3.org/2000/svg"><defs><linearGradient id="aya" x1="100%" x2="0%" y1="0%" y2="0%"><stop offset="0%" stop-color="#FFF"/><stop offset="100%" stop-color="#FFF"/></linearGradient></defs><path fill="none" d="M317 0c175.074 0 317 141.926 317 317S492.074 634 317 634 0 492.074 0 317 141.926 0 317 0z"/><path fill="url(#aya)" d="M317 0c175.074 0 317 141.926 317 317S492.074 634 317 634 0 492.074 0 317 141.926 0 317 0z"/></svg><svg viewBox="0 0 49.125 49.13" id="time" xmlns="http://www.w3.org/2000/svg"><defs><style>.azcls-1{fill:#a3bbc8;fill-rule:evenodd}</style></defs><path class="azcls-1" d="M45.406 11.58a.937.937 0 00-1.592.99 22.684 22.684 0 01-32.86 30.14.938.938 0 00-1.125 1.5 24.559 24.559 0 0035.577-32.63zm-23.03 21.94h-7.55l4.743-4.75a12.68 12.68 0 003.744-9.03 5.844 5.844 0 10-11.688 0 .938.938 0 001.875 0 3.969 3.969 0 117.938 0 10.836 10.836 0 01-3.195 7.71l-6.344 6.34a.949.949 0 00-.2 1.03.93.93 0 00.866.57h9.813a.935.935 0 10-.002-1.87zm15.039-6.44h-2.6v-1.52a.938.938 0 00-1.875 0v1.52h-5.286l5.286-8.85v4.21a.938.938 0 101.875 0v-7.62a.957.957 0 00-.456-.8.94.94 0 00-1.286.33l-7.875 13.19a.933.933 0 00-.011.94.951.951 0 00.816.48h6.938v5.5a.938.938 0 001.875 0v-5.5h2.6a.94.94 0 00-.001-1.88zm5.33-22.63a.938.938 0 10-1.875.04l.042 1.75A24.556 24.556 0 007.363 42.09a.93.93 0 00.656.27.92.92 0 00.669-.28.942.942 0 00-.013-1.33A22.679 22.679 0 0124.557 1.88a22.745 22.745 0 0115.107 5.77l-1.843.04a.935.935 0 00.022 1.87h.023l4.06-.09a.934.934 0 00.915-.96z"/></svg><svg viewBox="0 0 67 64" id="time2" xmlns="http://www.w3.org/2000/svg"><defs><style>.bacls-1{fill:#243f4d;fill-rule:evenodd}</style></defs><path class="bacls-1" d="M57.06 53.46a4.359 4.359 0 00-2.21-3.23l-11.59-6.45a4.614 4.614 0 00-5.46.74l-4.07 4.03a2.4 2.4 0 01-3.1.24A75.725 75.725 0 0115.38 33.7a2.362 2.362 0 01.24-3.07l4.07-4.03a4.484 4.484 0 00.75-5.4L13.92 9.74a4.37 4.37 0 00-3.26-2.19A4.685 4.685 0 006.7 8.89l-4.29 4.24c-3.04 3.01-3.2 8.38-.45 15.13 2.62 6.46 7.61 13.53 14.05 19.9S29.6 59.48 36.13 62.07A23.842 23.842 0 0044.78 64a9.073 9.073 0 006.63-2.37l4.29-4.25a4.6 4.6 0 001.36-3.92zm-2.89 2.4l-.75.75-9.88-5.34a1.09 1.09 0 00-1.47.43 1.066 1.066 0 00.43 1.46l9.32 5.03-1.94 1.92c-2.35 2.32-7.06 2.31-12.94-.03-6.27-2.49-13.15-7.26-19.39-13.44S6.49 33.66 3.97 27.46c-2.36-5.82-2.37-10.49-.03-12.81l1.94-1.92 1.04 1.89a1.109 1.109 0 00.96.56 1.095 1.095 0 00.95-1.59l-1.35-2.44.75-.74a2.573 2.573 0 011.8-.76 1.841 1.841 0 01.33.03 2.221 2.221 0 011.67 1.11l6.52 11.47a2.363 2.363 0 01-.39 2.83L16.22 27l-5.08-9.22a1.1 1.1 0 00-1.47-.43 1.078 1.078 0 00-.44 1.46l5.39 9.77-.53.53a4.5 4.5 0 00-.45 5.87 75.017 75.017 0 007.28 8.32 76.9 76.9 0 008.41 7.21 4.624 4.624 0 005.94-.44l.53-.53 2.46 1.33a1.112 1.112 0 00.52.13 1.089 1.089 0 00.96-.56 1.064 1.064 0 00-.44-1.45l-1.9-1.03 1.93-1.92a2.438 2.438 0 012.86-.39l11.59 6.45a2.244 2.244 0 011.13 1.65 2.517 2.517 0 01-.74 2.11zm-2.14-28.37H50.8v-9.24a1.085 1.085 0 00-2.17 0v9.24h-5.67l2.02-9a1.069 1.069 0 00-.82-1.28 1.083 1.083 0 00-1.3.81l-2.31 10.31a1.073 1.073 0 00.21.9 1.091 1.091 0 00.85.41h7.01v3.5a1.09 1.09 0 002.18 0v-3.5h1.22a1.075 1.075 0 10.01-2.15zm-13.89 4.58h-7.99c.47-1.23 1.81-2.01 3.73-3.05 2.38-1.29 5.34-2.88 5.34-6.51a5.729 5.729 0 00-11.43 0 1.085 1.085 0 002.17 0 3.566 3.566 0 017.09 0c0 2.19-1.59 3.21-4.21 4.62-2.36 1.28-5.05 2.73-5.05 6.01a1.084 1.084 0 001.09 1.08h9.26a1.075 1.075 0 100-2.15zm22.93 12.62l-2.11.42A26.086 26.086 0 0067 26.27a26.608 26.608 0 00-48.27-15.11 1.065 1.065 0 00.26 1.5 1.1 1.1 0 001.51-.26 24.436 24.436 0 0144.33 13.87 23.961 23.961 0 01-7.59 17.5l.48-2.4a1.069 1.069 0 00-.85-1.26 1.085 1.085 0 00-1.28.84l-1.16 5.73a1.069 1.069 0 00.3.97 1.107 1.107 0 00.77.31.749.749 0 00.21-.02l5.79-1.14a1.077 1.077 0 10-.43-2.11zM40.45 4.58a1.073 1.073 0 00-1.08 1.07v2.3a1.085 1.085 0 002.17 0v-2.3a1.082 1.082 0 00-1.09-1.07zM61.28 25.2h-2.31a1.075 1.075 0 100 2.15h2.31a1.075 1.075 0 100-2.15zm-36.33-9.02l-2-1.15a1.091 1.091 0 00-1.48.4 1.064 1.064 0 00.39 1.46l2.01 1.15a1.063 1.063 0 00.54.14 1.081 1.081 0 00.94-.53 1.07 1.07 0 00-.4-1.47zm34.09 19.47l-2.01-1.14a1.075 1.075 0 10-1.08 1.86l2 1.14a1.063 1.063 0 00.54.14 1.081 1.081 0 00.94-.53 1.067 1.067 0 00-.39-1.47zM51.41 7.49a1.088 1.088 0 00-1.48.39l-1.16 1.98a1.074 1.074 0 00.94 1.61 1.093 1.093 0 00.94-.53l1.16-1.99a1.059 1.059 0 00-.4-1.46zM31.73 41.21a1.091 1.091 0 00-1.48.4l-1.16 1.98a1.073 1.073 0 00.4 1.47 1.174 1.174 0 00.54.14 1.07 1.07 0 00.94-.54l1.16-1.98a1.073 1.073 0 00-.4-1.47zm27.7-25.78a1.091 1.091 0 00-1.48-.4l-2 1.15a1.07 1.07 0 00-.4 1.47 1.093 1.093 0 00.94.53 1.063 1.063 0 00.54-.14l2.01-1.15a1.056 1.056 0 00.39-1.46zM25.35 34.9a1.079 1.079 0 00-1.48-.39l-2.01 1.14a1.072 1.072 0 00.55 2 1.063 1.063 0 00.54-.14l2-1.14a1.073 1.073 0 00.4-1.47zm6.78-25.04l-1.16-1.98a1.088 1.088 0 00-1.48-.39 1.059 1.059 0 00-.4 1.46l1.16 1.99a1.1 1.1 0 00.94.54 1.048 1.048 0 00.54-.15 1.07 1.07 0 00.4-1.47zm19.68 33.73l-1.16-1.98a1.091 1.091 0 00-1.48-.4 1.073 1.073 0 00-.4 1.47l1.16 1.98a1.07 1.07 0 00.94.54 1.174 1.174 0 00.54-.14 1.073 1.073 0 00.4-1.47z"/></svg><svg viewBox="0 0 127 127" id="video-cycle-0" xmlns="http://www.w3.org/2000/svg"><defs><style>.bbcls-1{fill:#a3bbc8;opacity:.4}</style></defs><circle class="bbcls-1" cx="63.5" cy="63.5" r="63.5"/></svg><svg viewBox="0 0 98 98" id="video-cycle-1" xmlns="http://www.w3.org/2000/svg"><defs><style>.bccls-1{fill:#a3bbc8}.bccls-2{fill:#fff;fill-rule:evenodd}</style></defs><circle class="bccls-1" cx="49" cy="49" r="49"/><path id="bcForm_24" data-name="Form 24" class="bccls-2" d="M970.684 3900.74l-16.044 9.8a3.228 3.228 0 01-3.062.14 2.685 2.685 0 01-1.579-2.39v-19.59a2.685 2.685 0 011.579-2.39 3.258 3.258 0 013.062.15l16.044 9.79a2.666 2.666 0 011.316 2.25 2.638 2.638 0 01-1.316 2.24z" transform="translate(-911 -3850)"/></svg></svg>